<mxfile host="app.diagrams.net" agent="Mozilla/5.0 (Macintosh; Intel Mac OS X 10_15_7) AppleWebKit/537.36 (KHTML, like Gecko) Chrome/132.0.0.0 Safari/537.36" version="26.0.13">
  <diagram name="Page-1" id="7MeNTDYA1zrT9g1DdVVm">
    <mxGraphModel dx="1185" dy="454" grid="1" gridSize="10" guides="1" tooltips="1" connect="1" arrows="1" fold="1" page="1" pageScale="1" pageWidth="850" pageHeight="1100" math="0" shadow="0">
      <root>
        <mxCell id="0" />
        <mxCell id="1" parent="0" />
        <mxCell id="a7G9c52yO9MDF6VAEnNr-5" value="" style="edgeStyle=orthogonalEdgeStyle;rounded=0;orthogonalLoop=1;jettySize=auto;html=1;" edge="1" parent="1" source="a7G9c52yO9MDF6VAEnNr-2" target="a7G9c52yO9MDF6VAEnNr-4">
          <mxGeometry relative="1" as="geometry" />
        </mxCell>
        <mxCell id="a7G9c52yO9MDF6VAEnNr-6" style="edgeStyle=orthogonalEdgeStyle;rounded=0;orthogonalLoop=1;jettySize=auto;html=1;exitX=0.5;exitY=0;exitDx=0;exitDy=0;entryX=0.453;entryY=1.017;entryDx=0;entryDy=0;entryPerimeter=0;" edge="1" parent="1" source="a7G9c52yO9MDF6VAEnNr-2" target="a7G9c52yO9MDF6VAEnNr-7">
          <mxGeometry relative="1" as="geometry">
            <mxPoint x="580" y="340" as="targetPoint" />
          </mxGeometry>
        </mxCell>
        <mxCell id="a7G9c52yO9MDF6VAEnNr-10" style="edgeStyle=orthogonalEdgeStyle;rounded=0;orthogonalLoop=1;jettySize=auto;html=1;entryX=1;entryY=0.5;entryDx=0;entryDy=0;dashed=1;" edge="1" parent="1" source="a7G9c52yO9MDF6VAEnNr-2" target="a7G9c52yO9MDF6VAEnNr-11">
          <mxGeometry relative="1" as="geometry">
            <mxPoint x="320" y="440" as="targetPoint" />
          </mxGeometry>
        </mxCell>
        <mxCell id="a7G9c52yO9MDF6VAEnNr-14" value="" style="edgeStyle=orthogonalEdgeStyle;rounded=0;orthogonalLoop=1;jettySize=auto;html=1;dashed=1;" edge="1" parent="1" source="a7G9c52yO9MDF6VAEnNr-2" target="a7G9c52yO9MDF6VAEnNr-13">
          <mxGeometry relative="1" as="geometry" />
        </mxCell>
        <mxCell id="a7G9c52yO9MDF6VAEnNr-17" value="" style="edgeStyle=orthogonalEdgeStyle;rounded=0;orthogonalLoop=1;jettySize=auto;html=1;" edge="1" parent="1" source="a7G9c52yO9MDF6VAEnNr-2" target="a7G9c52yO9MDF6VAEnNr-16">
          <mxGeometry relative="1" as="geometry" />
        </mxCell>
        <mxCell id="a7G9c52yO9MDF6VAEnNr-2" value="BeagleY-AI" style="rounded=0;whiteSpace=wrap;html=1;" vertex="1" parent="1">
          <mxGeometry x="390" y="410" width="120" height="60" as="geometry" />
        </mxCell>
        <mxCell id="a7G9c52yO9MDF6VAEnNr-4" value="Light&lt;div&gt;Sensor&lt;/div&gt;" style="shape=parallelogram;perimeter=parallelogramPerimeter;whiteSpace=wrap;html=1;fixedSize=1;rounded=0;" vertex="1" parent="1">
          <mxGeometry x="390" y="270" width="120" height="60" as="geometry" />
        </mxCell>
        <mxCell id="a7G9c52yO9MDF6VAEnNr-7" value="Temperature&lt;div&gt;Sensor&lt;/div&gt;" style="shape=parallelogram;perimeter=parallelogramPerimeter;whiteSpace=wrap;html=1;fixedSize=1;rounded=0;" vertex="1" parent="1">
          <mxGeometry x="490" y="270" width="120" height="60" as="geometry" />
        </mxCell>
        <mxCell id="a7G9c52yO9MDF6VAEnNr-8" value="Humidity&lt;div&gt;Sensor&lt;/div&gt;" style="shape=parallelogram;perimeter=parallelogramPerimeter;whiteSpace=wrap;html=1;fixedSize=1;rounded=0;" vertex="1" parent="1">
          <mxGeometry x="290" y="270" width="120" height="60" as="geometry" />
        </mxCell>
        <mxCell id="a7G9c52yO9MDF6VAEnNr-9" style="edgeStyle=orthogonalEdgeStyle;rounded=0;orthogonalLoop=1;jettySize=auto;html=1;entryX=0.461;entryY=1.017;entryDx=0;entryDy=0;entryPerimeter=0;" edge="1" parent="1" source="a7G9c52yO9MDF6VAEnNr-2" target="a7G9c52yO9MDF6VAEnNr-8">
          <mxGeometry relative="1" as="geometry" />
        </mxCell>
        <mxCell id="a7G9c52yO9MDF6VAEnNr-11" value="Discord&lt;div&gt;Alert&lt;/div&gt;&lt;div&gt;Channel&lt;/div&gt;" style="ellipse;whiteSpace=wrap;html=1;" vertex="1" parent="1">
          <mxGeometry x="210" y="400" width="120" height="80" as="geometry" />
        </mxCell>
        <mxCell id="a7G9c52yO9MDF6VAEnNr-13" value="Web Server" style="ellipse;whiteSpace=wrap;html=1;rounded=0;" vertex="1" parent="1">
          <mxGeometry x="560" y="415" width="130" height="50" as="geometry" />
        </mxCell>
        <mxCell id="a7G9c52yO9MDF6VAEnNr-16" value="RFID&lt;div&gt;Reader/Writer&lt;/div&gt;" style="shape=parallelogram;perimeter=parallelogramPerimeter;whiteSpace=wrap;html=1;fixedSize=1;rounded=0;" vertex="1" parent="1">
          <mxGeometry x="390" y="510" width="120" height="60" as="geometry" />
        </mxCell>
      </root>
    </mxGraphModel>
  </diagram>
</mxfile>
